<svg id="light" enable-background="new 0 0 24 24" height="512" viewBox="0 0 24 24" width="512" xmlns="http://www.w3.org/2000/svg"><g><path d="m14.5 22h-5c-.2 0-.3-.1-.4-.3s-.1-.4 0-.5l2.5-4c.2-.3.7-.3.8 0l2.5 4c.1.2.1.3 0 .5s-.2.3-.4.3zm-4.1-1h3.2l-1.6-2.6z"/></g><g><path d="m23.5 17h-23c-.3 0-.5-.2-.5-.5s.2-.5.5-.5h23c.3 0 .5.2.5.5s-.2.5-.5.5z"/></g><g><path d="m4 10c-1.1 0-2-.9-2-2s.9-2 2-2 2 .9 2 2-.9 2-2 2zm0-3c-.6 0-1 .4-1 1s.4 1 1 1 1-.4 1-1-.4-1-1-1z"/></g><g><path d="m7.5 15c-.3 0-.5-.2-.5-.5v-1c0-.8-.7-1.5-1.5-1.5h-3c-.8 0-1.5.7-1.5 1.5v1c0 .3-.2.5-.5.5s-.5-.2-.5-.5v-1c0-1.4 1.1-2.5 2.5-2.5h3c1.4 0 2.5 1.1 2.5 2.5v1c0 .3-.2.5-.5.5z"/></g><g><path d="m20.5 15.5c-.3 0-.5-.2-.5-.5v-1.5c0-.3.2-.5.5-.5s.5.2.5.5v1.5c0 .3-.2.5-.5.5z"/></g><g><path d="m21 14h-2.5c-.3 0-.5-.2-.5-.5s.2-.5.5-.5h2.5c.6 0 1-.4 1-1s-.4-1-1-1h-1c-1.1 0-2-.9-2-2s.9-2 2-2h2.5c.3 0 .5.2.5.5s-.2.5-.5.5h-2.5c-.6 0-1 .4-1 1s.4 1 1 1h1c1.1 0 2 .9 2 2s-.9 2-2 2z"/></g><g><path d="m20.5 8c-.3 0-.5-.2-.5-.5v-1.5c0-.3.2-.5.5-.5s.5.2.5.5v1.5c0 .3-.2.5-.5.5z"/></g></svg>