<svg id="light" enable-background="new 0 0 24 24" height="512" viewBox="0 0 24 24" width="512" xmlns="http://www.w3.org/2000/svg"><g><path d="m4 19c-1.1 0-2-.9-2-2s.9-2 2-2 2 .9 2 2-.9 2-2 2zm0-3c-.6 0-1 .4-1 1s.4 1 1 1 1-.4 1-1-.4-1-1-1z"/></g><g><path d="m7.5 24c-.3 0-.5-.2-.5-.5v-1c0-.8-.7-1.5-1.5-1.5h-3c-.8 0-1.5.7-1.5 1.5v1c0 .3-.2.5-.5.5s-.5-.2-.5-.5v-1c0-1.4 1.1-2.5 2.5-2.5h3c1.4 0 2.5 1.1 2.5 2.5v1c0 .3-.2.5-.5.5z"/></g><g><path d="m20 19c-1.1 0-2-.9-2-2s.9-2 2-2 2 .9 2 2-.9 2-2 2zm0-3c-.6 0-1 .4-1 1s.4 1 1 1 1-.4 1-1-.4-1-1-1z"/></g><g><path d="m23.5 24c-.3 0-.5-.2-.5-.5v-1c0-.8-.7-1.5-1.5-1.5h-3c-.8 0-1.5.7-1.5 1.5v1c0 .3-.2.5-.5.5s-.5-.2-.5-.5v-1c0-1.4 1.1-2.5 2.5-2.5h3c1.4 0 2.5 1.1 2.5 2.5v1c0 .3-.2.5-.5.5z"/></g><g><path d="m20 14c-.3 0-.5-.2-.5-.5v-1.5h-15v1.5c0 .3-.2.5-.5.5s-.5-.2-.5-.5v-2c0-.3.2-.5.5-.5h16c.3 0 .5.2.5.5v2c0 .3-.2.5-.5.5z"/></g><g><path d="m12 12c-.3 0-.5-.2-.5-.5v-2c0-.3.2-.5.5-.5s.5.2.5.5v2c0 .3-.2.5-.5.5z"/></g><g><path d="m14.9 8h-6.2c-1.5 0-2.7-1.2-2.7-2.6 0-1.3 1-2.4 2.3-2.6.4-1.6 1.9-2.8 3.7-2.8 1.4 0 2.7.7 3.3 1.9 1.5.2 2.7 1.5 2.7 3 0 1.7-1.4 3.1-3.1 3.1zm-2.9-7c-1.4 0-2.6 1-2.8 2.4 0 .2-.2.4-.5.4-1 0-1.7.7-1.7 1.6s.7 1.6 1.7 1.6h6.2c1.1 0 2.1-.9 2.1-2.1 0-1.1-.9-2-2-2.1-.2 0-.3-.1-.4-.3-.5-.9-1.5-1.5-2.6-1.5z"/></g></svg>