<svg id="light" enable-background="new 0 0 24 24" height="512" viewBox="0 0 24 24" width="512" xmlns="http://www.w3.org/2000/svg"><g><path d="m16.5 24h-15c-.5 0-1-.3-1.3-.7s-.3-.9-.1-1.4l2-4.6v-.1l5.5-12.8c.2-.5.6-.8 1.2-.9.2 0 .5.2.5.5s-.2.5-.4.6c-.1 0-.3.1-.4.3l-5.5 12.8v.1l-2 4.5c-.1.2-.1.3 0 .5.2.1.3.2.5.2h15c.2 0 .3-.1.4-.2s.1-.3 0-.5l-3.1-7.2c-.1-.3 0-.5.3-.7.3-.1.5 0 .7.3l3.1 7.2c.2.5.2 1-.1 1.4s-.8.7-1.3.7z"/></g><g><path d="m9.4 11h-3.8c-.3 0-.5-.2-.5-.5s.2-.5.4-.5h3.9c.3 0 .5.2.5.5s-.2.5-.5.5z"/></g><g><path d="m15.4 18h-12.8c-.3 0-.5-.2-.5-.5s.2-.5.5-.5h12.9c.3 0 .5.2.5.5s-.3.5-.6.5z"/></g><g><path d="m17.5 13c-3.6 0-6.5-2.9-6.5-6.5s2.9-6.5 6.5-6.5 6.5 2.9 6.5 6.5-2.9 6.5-6.5 6.5zm0-12c-3 0-5.5 2.5-5.5 5.5s2.5 5.5 5.5 5.5 5.5-2.5 5.5-5.5-2.5-5.5-5.5-5.5z"/></g><g><path d="m20.5 7c-.1 0-.3 0-.4-.1l-2.6-2.6-2.6 2.6c-.2.2-.5.2-.7 0s-.2-.5 0-.7l3-3c.2-.2.5-.2.7 0l3 3c.2.2.2.5 0 .7-.1.1-.3.1-.4.1z"/></g><g><path d="m17.5 10c-.3 0-.5-.2-.5-.5v-6c0-.3.2-.5.5-.5s.5.2.5.5v6c0 .3-.2.5-.5.5z"/></g></svg>